<svg width="24" height="24" viewBox="0 0 24 24" fill="none" xmlns="http://www.w3.org/2000/svg">
<path d="M11.0818 3.12723C11.4292 2.32217 12.5708 2.32217 12.9182 3.12723L15.0982 8.17911C15.2453 8.52 15.5691 8.75132 15.9393 8.77993L21.53 9.21192C22.4269 9.28123 22.7833 10.4073 22.0896 10.9801L17.8852 14.4514C17.5886 14.6962 17.4588 15.0894 17.5512 15.4627L18.8451 20.6911C19.0579 21.5509 18.1304 22.2424 17.3671 21.7931L12.5073 18.9321C12.1942 18.7478 11.8058 18.7478 11.4927 18.9321L6.63294 21.7931C5.86964 22.2424 4.94211 21.5509 5.1549 20.6911L6.44884 15.4627C6.54123 15.0894 6.41136 14.6962 6.1148 14.4514L1.91041 10.9801C1.21665 10.4073 1.57306 9.28123 2.47004 9.21192L8.06069 8.77993C8.43086 8.75132 8.75471 8.52 8.90181 8.17911L11.0818 3.12723Z" fill="#04B90B"/>
</svg>
